<svg xmlns="http://www.w3.org/2000/svg" xmlns:xlink="http://www.w3.org/1999/xlink" width="130.888" height="148.232" viewBox="0 0 130.888 148.232">
  <defs>
    <clipPath id="clip-path">
      <rect id="Прямоугольник_143" data-name="Прямоугольник 143" width="81.431" height="81.431" fill="#a1ecc8"/>
    </clipPath>
    <clipPath id="clip-path-2">
      <rect id="Прямоугольник_172" data-name="Прямоугольник 172" width="45.884" height="45.885" fill="#08b96d"/>
    </clipPath>
  </defs>
  <g id="Сгруппировать_847" data-name="Сгруппировать 847" transform="translate(-862 -3138.326)">
    <g id="Сгруппировать_560" data-name="Сгруппировать 560" transform="translate(992.888 3254.74) rotate(157)" clip-path="url(#clip-path)">
      <path id="Контур_67" data-name="Контур 67" d="M1.191,37.841,37.84,1.191a4.066,4.066,0,0,1,5.75,0l36.65,36.65a4.066,4.066,0,0,1,0,5.75L43.591,80.24a4.066,4.066,0,0,1-5.75,0L1.191,43.591a4.066,4.066,0,0,1,0-5.75" transform="translate(0 0)" fill="#a1ecc8"/>
    </g>
    <g id="Сгруппировать_643" data-name="Сгруппировать 643" transform="translate(907.821 3186.549) rotate(-177)" clip-path="url(#clip-path-2)">
      <path id="Контур_78" data-name="Контур 78" d="M.671,21.322,21.322.671a2.291,2.291,0,0,1,3.24,0L45.213,21.322a2.291,2.291,0,0,1,0,3.24L24.562,45.213a2.291,2.291,0,0,1-3.24,0L.671,24.562a2.291,2.291,0,0,1,0-3.24" transform="translate(0 0)" fill="#006042"/>
    </g>
  </g>
</svg>
