<svg xmlns="http://www.w3.org/2000/svg" xmlns:xlink="http://www.w3.org/1999/xlink" width="37.5" height="24.484" viewBox="0 0 37.5 24.484">
  <defs>
    <clipPath id="clip-path">
      <rect id="Прямоугольник_24" data-name="Прямоугольник 24" width="37.5" height="24.484" transform="translate(0 0)" fill="#1e0d43" stroke="#e2d5ff" stroke-width="0.3"/>
    </clipPath>
  </defs>
  <g id="Сгруппировать_38" data-name="Сгруппировать 38" clip-path="url(#clip-path)">
    <path id="Контур_1" data-name="Контур 1" d="M82.122,14.963a26.175,26.175,0,0,0,2.914.93,6.158,6.158,0,0,1-2.974,4.134,19.7,19.7,0,0,1-2.5,1.109c-.362.143-.518.32-.447.711.12.653.239,1.307.314,1.965.064.562.342.758.876.637,1.2-.273,2.439-.454,3.608-.836,6.987-2.283,11.413-8.465,10.5-15.55C93.706,2.6,89.418-.605,84.466.1a8.023,8.023,0,0,0-6.79,6.79,7.708,7.708,0,0,0,4.446,8.078" transform="translate(-57.027 0)" fill="#1e0d43" stroke="#e2d5ff" stroke-width="0.3"/>
    <path id="Контур_2" data-name="Контур 2" d="M3.4,14.344A8.351,8.351,0,0,0,7.495,15.8l.191.2a26.163,26.163,0,0,1-1.64,2.733,7.7,7.7,0,0,1-3.993,2.423c-.471.15-.63.369-.536.841.12.606.235,1.215.3,1.829s.347.758.917.675a16.578,16.578,0,0,0,11.012-5.855A13.2,13.2,0,0,0,16.626,7.2,8.545,8.545,0,0,0,6.929.141,7.786,7.786,0,0,0,.226,6,7.961,7.961,0,0,0,3.4,14.344" transform="translate(0 -0.048)" fill="#1e0d43" stroke="#e2d5ff" stroke-width="0.3"/>
  </g>
</svg>
